<svg width="162" height="40" viewBox="0 0 162 40" fill="none" xmlns="http://www.w3.org/2000/svg">
<path d="M34.5768 20C34.5768 11.1634 26.8413 4 17.299 4C7.7568 4 0.0213013 11.1634 0.0213013 20C0.0213013 28.8366 7.7568 36 17.299 36C26.8413 36 34.5768 28.8366 34.5768 20Z" fill="#252C32"/>
<path d="M34.5768 4H0.0213013V36H34.5768V4Z" fill="#3B082B"/>
<path d="M31.3609 16.16C31.203 17.569 30.7477 18.7897 29.9948 19.8206C29.0932 21.0666 27.9456 21.6897 26.5513 21.6897C25.9381 21.6897 25.0365 21.5666 23.8466 21.321C22.6573 21.0745 21.76 20.9519 21.1557 20.9519C19.557 20.9519 18.3629 21.9147 17.5726 23.84H16.9172C16.2758 22.8079 15.7831 22.1315 15.4394 21.8107C14.8168 21.2383 14.0268 20.9519 13.0696 20.9519C12.0638 20.9519 9.51801 21.7924 8.09249 21.69C6.66708 21.5877 3.95663 19.8471 3.18497 16.1604H3.9656C4.61621 18.0251 5.96409 18.9574 8.00859 18.9574C8.52011 18.9574 9.29599 18.8949 10.3368 18.7696C11.3781 18.6446 12.1539 18.5821 12.6649 18.5821C14.431 18.5821 15.9504 19.9377 17.2238 22.6481C18.3578 19.9373 20.0817 18.5821 22.3958 18.5821C22.8885 18.5821 23.6248 18.6446 24.6056 18.7696C25.5863 18.8949 26.3227 18.9574 26.8154 18.9574C28.7295 18.9574 30.0264 18.0251 30.7052 16.1604L31.3609 16.16Z" fill="#3B82F6"/>
<path d="M31.3609 16.16C31.203 17.569 30.7477 18.7897 29.9948 19.8206C29.0932 21.0666 27.9456 21.6897 26.5513 21.6897C25.9381 21.6897 25.0365 21.5666 23.8466 21.321C22.6573 21.0745 21.76 20.9519 21.1557 20.9519C19.557 20.9519 18.3629 21.9147 17.5726 23.84H16.9172C16.2758 22.8079 15.7831 22.1315 15.4394 21.8107C14.8168 21.2383 14.0268 20.9519 13.0696 20.9519C12.0638 20.9519 9.51801 21.7924 8.09249 21.69C6.66708 21.5877 3.95663 19.8471 3.18497 16.1604H3.9656C4.61621 18.0251 5.96409 18.9574 8.00859 18.9574C8.52011 18.9574 9.29599 18.8949 10.3368 18.7696C11.3781 18.6446 12.1539 18.5821 12.6649 18.5821C14.431 18.5821 15.9504 19.9377 17.2238 22.6481C18.3578 19.9373 20.0817 18.5821 22.3958 18.5821C22.8885 18.5821 23.6248 18.6446 24.6056 18.7696C25.5863 18.8949 26.3227 18.9574 26.8154 18.9574C28.7295 18.9574 30.0264 18.0251 30.7052 16.1604L31.3609 16.16Z" fill="#F1EFDE"/>
<path d="M44.4305 11.5455H50.7991L55.1799 21.4318H55.4008L59.7816 11.5455H66.1503V29H61.1437V18.9091H60.9964L56.7997 28.8636H53.781L49.5843 18.8409H49.4371V29H44.4305V11.5455ZM73.1088 29H67.5867L73.8082 11.5455H80.8028L87.0242 29H81.5022L77.3791 16.3523H77.2318L73.1088 29ZM72.0779 22.1136H82.4594V25.6591H72.0779V22.1136ZM90.8972 11.5455L94.7626 23.8523H94.9098L98.7754 11.5455H104.555L98.3337 29H91.3389L85.1175 11.5455H90.8972ZM106.007 29V11.5455H114.143C115.542 11.5455 116.766 11.7812 117.815 12.2528C118.865 12.7244 119.68 13.4034 120.263 14.2898C120.847 15.1761 121.138 16.2386 121.138 17.4773C121.138 18.7273 120.837 19.7812 120.235 20.6392C119.64 21.4972 118.804 22.1449 117.724 22.5824C116.649 23.0199 115.394 23.2386 113.959 23.2386H109.1V19.5568H112.928C113.529 19.5568 114.042 19.4886 114.466 19.3523C114.894 19.2102 115.223 18.9858 115.451 18.679C115.683 18.3722 115.799 17.9716 115.799 17.4773C115.799 16.9773 115.683 16.571 115.451 16.2585C115.223 15.9403 114.894 15.7074 114.466 15.5597C114.042 15.4062 113.529 15.3295 112.928 15.3295H111.125V29H106.007ZM117.052 20.9886L121.763 29H116.204L111.603 20.9886H117.052ZM128.073 11.5455V29H122.956V11.5455H128.073ZM147.732 18.0909H142.542C142.504 17.6932 142.407 17.3324 142.247 17.0085C142.094 16.6847 141.879 16.4062 141.603 16.1733C141.333 15.9347 141.004 15.7528 140.618 15.6278C140.231 15.4972 139.793 15.4318 139.302 15.4318C138.443 15.4318 137.716 15.625 137.121 16.0114C136.532 16.3977 136.083 16.9517 135.777 17.6733C135.477 18.3949 135.326 19.2614 135.326 20.2727C135.326 21.3409 135.48 22.2358 135.786 22.9574C136.1 23.6733 136.55 24.2131 137.14 24.5767C137.728 24.9347 138.436 25.1136 139.265 25.1136C139.738 25.1136 140.161 25.0597 140.536 24.9517C140.909 24.8381 141.234 24.6761 141.511 24.4659C141.787 24.2557 142.011 24.0028 142.182 23.7074C142.361 23.4062 142.48 23.0682 142.542 22.6932L147.732 22.7273C147.671 23.4659 147.447 24.2187 147.06 24.9858C146.674 25.7472 146.125 26.4517 145.413 27.0994C144.707 27.7415 143.834 28.2585 142.79 28.6506C141.747 29.0426 140.536 29.2386 139.155 29.2386C137.425 29.2386 135.872 28.8949 134.498 28.2074C133.13 27.5199 132.047 26.5085 131.249 25.1733C130.457 23.8381 130.062 22.2045 130.062 20.2727C130.062 18.3295 130.467 16.6932 131.277 15.3636C132.087 14.0284 133.179 13.0199 134.553 12.3381C135.928 11.6506 137.461 11.3068 139.155 11.3068C140.345 11.3068 141.441 11.4574 142.441 11.7585C143.44 12.0597 144.317 12.5 145.072 13.0795C145.827 13.6534 146.435 14.3608 146.895 15.2017C147.355 16.0426 147.634 17.0057 147.732 18.0909Z" fill="black" fill-opacity="0.8"/>
</svg>
